# xmcd
#
# Track frame offsets:
#	150
#	17725
#	38742
#	56347
#	78662
#	100365
#	118130
#	144757
#	163760
#	189475
#
# Disc length: 2818 seconds
#
# Revision: 1
# Processed by: cddbd v1.5.2PL0 Copyright (c) Steve Scherf et al.
# Submitted via: EZCDAudioConverter 8.0.2.1
#
DISCID=7e0b000a
DTITLE=Mỹ Huyền - Xa Người Yêu
DYEAR=1999
DGENRE=Miscellaneous
TTITLE0=Mộng ước
TTITLE1=Xa Người Yêu
TTITLE2=Nghi ngờ
TTITLE3=Thà đừng yêu nhau
TTITLE4=Tiễn người đi
TTITLE5=Tàn thu
TTITLE6=Kiếp không chồng
TTITLE7=Nhạt nắng
TTITLE8=Lan và Điệp
TTITLE9=Đêm trao kỷ niệm
EXTD=
EXTT0=
EXTT1=
EXTT2=
EXTT3=
EXTT4=
EXTT5=
EXTT6=
EXTT7=
EXTT8=
EXTT9=
PLAYORDER=
